<?xml version="1.0" encoding="UTF-8"?>
<svg id="Capa_2" data-name="Capa 2" xmlns="http://www.w3.org/2000/svg" viewBox="0 0 377.53 89.5">
  <defs>
    <style>
      .cls-1 {
        fill: #fff;
        stroke-width: 0px;
      }
    </style>
  </defs>
  <g id="Capa_1-2" data-name="Capa 1">
    <g>
      <g>
        <path class="cls-1" d="m47.59,87.45H0L48.92,0l50.14,85.77-18.18.02-31.35-55.46-25.5,44.85,19.59-.1c2.19-.01,3.97,1.76,3.97,3.95v8.43Z"/>
        <circle class="cls-1" cx="62.35" cy="81.95" r="7.55"/>
      </g>
      <path class="cls-1" d="m149.75,84.56l-13.98-20.2h-15.63v16.25c0,2.33-1.89,4.21-4.21,4.21h-12.79V15.1c0-2.06,1.67-3.73,3.73-3.73h28.06c19.62,0,31.9,10.18,31.9,26.65,0,11.02-5.56,19.1-15.11,23.19l16.47,23.61h-17.94c-.2,0-.38-.1-.5-.26Zm-15.77-59.34h-13.85v25.6h13.85c10.39,0,15.63-4.83,15.63-12.8s-5.25-12.8-15.63-12.8Z"/>
      <path class="cls-1" d="m234.4,46.94h6.89v25.88c0,2.59-1.36,4.99-3.59,6.32-7.61,4.53-17.09,6.93-26.11,6.93-23.08,0-40.08-15.84-40.08-37.98s17-37.98,40.4-37.98c12.91,0,23.61,4.41,30.74,12.7l-7.81,7.21c-1.68,1.55-4.24,1.6-6.01.15-4.66-3.79-9.94-5.57-16.08-5.57-14.27,0-24.03,9.55-24.03,23.5s9.76,23.5,23.82,23.5c4.62,0,8.92-.84,13.22-3.15v-12.87c0-4.77,3.87-8.64,8.64-8.64Z"/>
      <path class="cls-1" d="m248.48,52.68V13.31h7.21c5,0,9.06,4.06,9.06,9.06v29.71c0,13.36,5.83,18.88,15.67,18.88s15.67-5.52,15.67-18.88V13.31h7.56c4.7,0,8.51,3.81,8.51,8.51v30.86c0,20.69-11.85,32.14-31.84,32.14s-31.84-11.45-31.84-32.14Z"/>
      <path class="cls-1" d="m316.47,77.58l2.19-4.85c1.79-3.98,6.46-5.82,10.45-4.06,5.27,2.33,11.42,3.76,17.38,3.76,10.07,0,14.17-3.36,14.17-7.87,0-13.75-42.71-4.3-42.71-31.58,0-12.49,10.07-22.87,30.95-22.87,8.95,0,18.1,2.07,24.87,6.12.37.22.51.68.35,1.07l-1.84,4.54c-1.61,3.97-6.09,5.9-10.11,4.41-4.54-1.68-9.07-2.5-13.37-2.5-10.07,0-13.96,3.78-13.96,8.39,0,13.54,42.71,4.2,42.71,31.16,0,12.28-10.18,22.77-31.16,22.77-11.65,0-23.4-3.46-29.9-8.5Z"/>
    </g>
  </g>
</svg>